<svg xmlns="http://www.w3.org/2000/svg" viewBox="0 0 1024 1024" width="1024" height="1024">
<rect x="0" y="0" width="128" height="128" fill="#000000"/>
<rect x="128" y="0" width="128" height="128" fill="#000000"/>
<rect x="256" y="0" width="128" height="128" fill="#FF8900"/>
<rect x="384" y="0" width="128" height="128" fill="#FF8900"/>
<rect x="512" y="0" width="128" height="128" fill="#FF8900"/>
<rect x="640" y="0" width="128" height="128" fill="#EDFFFB"/>
<rect x="768" y="0" width="128" height="128" fill="#000000"/>
<rect x="896" y="0" width="128" height="128" fill="#000000"/>
<rect x="0" y="128" width="128" height="128" fill="#000000"/>
<rect x="128" y="128" width="128" height="128" fill="#FFFFFF"/>
<rect x="256" y="128" width="128" height="128" fill="#FF8900"/>
<rect x="384" y="128" width="128" height="128" fill="#FF8900"/>
<rect x="512" y="128" width="128" height="128" fill="#FF8900"/>
<rect x="640" y="128" width="128" height="128" fill="#EDFFFB"/>
<rect x="768" y="128" width="128" height="128" fill="#FFFFFF"/>
<rect x="896" y="128" width="128" height="128" fill="#000000"/>
<rect x="0" y="256" width="128" height="128" fill="#FF8900"/>
<rect x="128" y="256" width="128" height="128" fill="#FF8900"/>
<rect x="256" y="256" width="128" height="128" fill="#FF8900"/>
<rect x="384" y="256" width="128" height="128" fill="#FF8900"/>
<rect x="512" y="256" width="128" height="128" fill="#EDFFFB"/>
<rect x="640" y="256" width="128" height="128" fill="#EDFFFB"/>
<rect x="768" y="256" width="128" height="128" fill="#EDFFFB"/>
<rect x="896" y="256" width="128" height="128" fill="#FFFFFF"/>
<rect x="0" y="384" width="128" height="128" fill="#FF8900"/>
<rect x="128" y="384" width="128" height="128" fill="#FF8900"/>
<rect x="256" y="384" width="128" height="128" fill="#FF8900"/>
<rect x="384" y="384" width="128" height="128" fill="#FF8900"/>
<rect x="512" y="384" width="128" height="128" fill="#EDFFFB"/>
<rect x="640" y="384" width="128" height="128" fill="#EDFFFB"/>
<rect x="768" y="384" width="128" height="128" fill="#EDFFFB"/>
<rect x="896" y="384" width="128" height="128" fill="#FFFFFF"/>
<rect x="0" y="512" width="128" height="128" fill="#FF8900"/>
<rect x="128" y="512" width="128" height="128" fill="#000000"/>
<rect x="256" y="512" width="128" height="128" fill="#FF8900"/>
<rect x="384" y="512" width="128" height="128" fill="#EDFFFB"/>
<rect x="512" y="512" width="128" height="128" fill="#EDFFFB"/>
<rect x="640" y="512" width="128" height="128" fill="#EDFFFB"/>
<rect x="768" y="512" width="128" height="128" fill="#000000"/>
<rect x="896" y="512" width="128" height="128" fill="#FFFFFF"/>
<rect x="0" y="640" width="128" height="128" fill="#FF8900"/>
<rect x="128" y="640" width="128" height="128" fill="#000000"/>
<rect x="256" y="640" width="128" height="128" fill="#FF8900"/>
<rect x="384" y="640" width="128" height="128" fill="#EDFFFB"/>
<rect x="512" y="640" width="128" height="128" fill="#EDFFFB"/>
<rect x="640" y="640" width="128" height="128" fill="#EDFFFB"/>
<rect x="768" y="640" width="128" height="128" fill="#000000"/>
<rect x="896" y="640" width="128" height="128" fill="#FFFFFF"/>
<rect x="0" y="768" width="128" height="128" fill="#FFFFFF"/>
<rect x="128" y="768" width="128" height="128" fill="#FFFFFF"/>
<rect x="256" y="768" width="128" height="128" fill="#EDFFFB"/>
<rect x="384" y="768" width="128" height="128" fill="#000000"/>
<rect x="512" y="768" width="128" height="128" fill="#000000"/>
<rect x="640" y="768" width="128" height="128" fill="#FFFFFF"/>
<rect x="768" y="768" width="128" height="128" fill="#FFFFFF"/>
<rect x="896" y="768" width="128" height="128" fill="#FFFFFF"/>
<rect x="0" y="896" width="128" height="128" fill="#FFFFFF"/>
<rect x="128" y="896" width="128" height="128" fill="#FFFFFF"/>
<rect x="256" y="896" width="128" height="128" fill="#EDFFFB"/>
<rect x="384" y="896" width="128" height="128" fill="#EDFFFB"/>
<rect x="512" y="896" width="128" height="128" fill="#FFFFFF"/>
<rect x="640" y="896" width="128" height="128" fill="#FFFFFF"/>
<rect x="768" y="896" width="128" height="128" fill="#FFFFFF"/>
<rect x="896" y="896" width="128" height="128" fill="#FFFFFF"/>
</svg>